<?xml version="1.0" standalone="no"?>
<!DOCTYPE svg PUBLIC "-//W3C//DTD SVG 20010904//EN"
 "http://www.w3.org/TR/2001/REC-SVG-20010904/DTD/svg10.dtd">
<svg version="1.0" xmlns="http://www.w3.org/2000/svg"
 width="512.000000pt" height="512.000000pt" viewBox="0 0 512.000000 512.000000"
 preserveAspectRatio="xMidYMid meet">

<g transform="translate(0.000000,512.000000) scale(0.100000,-0.100000)"
fill="#000000" stroke="none">
<path d="M3230 5113 c-331 -33 -627 -147 -890 -342 -107 -79 -294 -270 -370
-378 -338 -482 -414 -1083 -206 -1635 l35 -93 -899 -900 -900 -900 0 -433 0
-432 433 0 432 0 138 138 137 137 0 163 0 162 163 0 162 0 173 173 172 172 0
143 0 142 142 0 143 0 285 285 285 284 93 -35 c209 -78 402 -114 627 -114 288
0 509 52 770 181 848 417 1204 1447 794 2299 -264 549 -777 913 -1381 979 -91
10 -259 12 -338 4z m442 -323 c644 -136 1112 -683 1145 -1339 30 -601 -317
-1151 -879 -1393 -177 -76 -350 -110 -563 -109 -230 0 -404 42 -634 152 -68
32 -128 59 -135 59 -6 0 -153 -142 -326 -315 l-315 -315 -151 0 c-83 0 -185
-3 -227 -6 l-77 -7 0 -221 0 -221 -88 -88 -87 -87 -111 0 c-61 0 -172 -3 -247
-7 l-137 -6 0 -241 0 -240 -52 -53 -52 -53 -218 0 -218 0 0 222 0 223 930 927
c512 510 930 932 930 938 0 6 -20 51 -45 100 -100 199 -148 364 -164 560 -42
522 202 1019 644 1312 186 123 386 198 615 228 105 14 352 3 462 -20z"/>
<path d="M3633 4310 c-192 -35 -350 -153 -433 -325 -45 -95 -60 -159 -60 -262
0 -244 162 -472 393 -553 86 -30 238 -38 331 -16 197 46 359 197 423 393 35
106 37 247 5 348 -57 184 -210 340 -388 395 -74 23 -201 32 -271 20z m224
-326 c173 -84 213 -318 77 -458 -51 -52 -108 -78 -185 -84 -95 -7 -159 17
-225 82 -189 189 -40 513 226 490 30 -2 78 -16 107 -30z"/>
</g>
</svg>
